<?xml version="1.0" encoding="UTF-8"?>
<svg width="200px" height="65px" viewBox="0 0 200 65" version="1.1" xmlns="http://www.w3.org/2000/svg" xmlns:xlink="http://www.w3.org/1999/xlink">
    <title>Gaming-Malta</title>
    <g id="Page-1" stroke="none" stroke-width="1" fill="none" fill-rule="evenodd">
        <g id="Gaming-Malta" fill-rule="nonzero">
            <polygon id="Path" fill="#F08E00" points="177.016 45.62 181.786 45.333 199.332 30.292 171.992 40.815 171.752 41.138"></polygon>
            <polygon id="Path" fill="#BE0E19" points="199.33 64.626 199.332 64.627 180.802 48.742 180.724 48.777"></polygon>
            <polygon id="Path" fill="#089FAF" points="171.567 40.98 171.992 40.815 192.62 13.07 169.052 27.973 164.497 34.958"></polygon>
            <polygon id="Path" fill="#DFD831" points="163.115 29.877 150.118 0 151.215 23.646 160.595 31.638"></polygon>
            <polyline id="Path" fill="#BE0E19" points="171.567 40.98 171.753 41.138 171.993 40.815"></polyline>
            <polygon id="Path" fill="#009494" points="175.126 64.563 199.344 64.633 199.33 64.626 168.475 54.209"></polygon>
            <polygon id="Path" fill="#F08E00" points="151.215 23.646 139.402 13.586 151.812 37.766 151.869 37.728"></polygon>
            <polygon id="Path" fill="#BE0E19" points="168.475 54.209 199.33 64.626 180.724 48.777"></polygon>
            <polygon id="Path" fill="#E70000" points="168.475 54.209 199.33 64.626 180.724 48.777"></polygon>
            <polygon id="Path" fill="#E86209" points="177.016 45.62 171.753 41.138 168.02 46.161"></polygon>
            <polygon id="Path" fill="#5DBDC7" points="160.596 31.638 151.215 23.646 151.869 37.727"></polygon>
            <polygon id="Path" fill="#91BE21" points="171.567 40.98 164.497 34.957 156.885 46.63"></polygon>
            <polygon id="Path" fill="#F6AF33" points="156.75 46.837 168.02 46.161 171.753 41.138 171.567 40.98 156.885 46.63"></polygon>
            <polygon id="Path" fill="#FFFFFF" points="151.87 37.727 151.812 37.766 151.876 37.888"></polygon>
            <g id="Group" transform="translate(0.000000, 49.000000)" fill="#FFFFFF">
                <path d="M10.844,8.419 L10.844,10.779 C10.844,13.719 8.947,15.634 5.442,15.634 C1.894,15.634 0,13.719 0,10.636 L0,5.718 C0,2.653 1.855,0.758 5.422,0.758 C8.546,0.758 10.037,1.968 10.721,4.267 C10.783,4.467 10.721,4.53 10.541,4.609 L10.177,4.729 C9.997,4.791 9.897,4.751 9.836,4.569 C9.23,2.575 8.039,1.628 5.422,1.628 C2.419,1.628 0.929,3.159 0.929,5.698 L0.929,10.636 C0.929,13.216 2.499,14.766 5.442,14.766 C8.344,14.766 9.936,13.216 9.936,10.778 L9.936,9.023 L5.623,9.023 C5.422,9.023 5.361,8.943 5.361,8.761 L5.361,8.401 C5.361,8.218 5.421,8.136 5.623,8.136 L10.581,8.136 C10.783,8.136 10.844,8.218 10.844,8.419 L10.844,8.419 Z M26.05,15.352 L25.688,15.352 C25.384,15.352 25.285,15.312 25.244,15.131 L23.449,10.677 L16.759,10.677 L14.986,15.131 C14.924,15.311 14.823,15.351 14.522,15.351 L14.179,15.351 C13.977,15.351 13.938,15.251 13.997,15.112 L19.581,1.182 C19.662,1.002 19.741,0.942 19.924,0.942 L20.326,0.942 C20.509,0.942 20.609,1.002 20.67,1.182 L26.252,15.112 C26.312,15.251 26.272,15.352 26.05,15.352 L26.05,15.352 Z M20.127,1.867 L20.064,1.867 C20.064,1.969 20.045,2.333 19.904,2.737 L17.04,9.89 L23.187,9.89 L20.325,2.736 C20.185,2.333 20.144,1.969 20.126,1.867 L20.127,1.867 Z M43.014,1.305 L43.014,15.089 C43.014,15.291 42.952,15.352 42.771,15.352 L42.368,15.352 C42.188,15.352 42.125,15.292 42.125,15.089 L42.125,5.84 C42.125,4.79 42.166,3.663 42.268,2.473 L42.227,2.473 C41.760483,3.45203695 41.256443,4.41274855 40.716,5.353 L37.127,11.723 C37.047,11.886 36.967,11.923 36.807,11.923 L36.545,11.923 C36.361,11.923 36.283,11.905 36.2,11.723 L32.552,5.273 C32.0283423,4.36110753 31.5445528,3.42689321 31.102,2.473 L31.062,2.473 C31.142,3.663 31.182,4.75 31.182,5.84 L31.182,15.088 C31.182,15.29 31.122,15.351 30.92,15.351 L30.56,15.351 C30.357,15.351 30.296,15.291 30.296,15.088 L30.296,1.305 C30.296,1.102 30.356,1.042 30.56,1.042 L30.88,1.042 C31.103,1.042 31.163,1.102 31.264,1.266 L36.666,10.796 L42.026,1.286 C42.126,1.101 42.188,1.042 42.389,1.042 L42.772,1.042 C42.952,1.042 43.014,1.102 43.014,1.305 L43.014,1.305 Z M48.202,1.042 L48.627,1.042 C48.807,1.042 48.868,1.102 48.868,1.305 L48.868,15.089 C48.868,15.291 48.807,15.352 48.627,15.352 L48.202,15.352 C48,15.352 47.939,15.292 47.939,15.089 L47.939,1.305 C47.939,1.102 48,1.042 48.202,1.042 Z M64.3,1.305 L64.3,15.089 C64.3,15.291 64.24,15.352 64.06,15.352 L63.636,15.352 C63.494,15.352 63.434,15.333 63.354,15.192 L56.199,4.993 C55.536,4.046 54.99,2.956 54.567,2.374 L54.527,2.374 C54.527,3.14 54.649,4.428 54.649,5.698 L54.649,15.088 C54.649,15.291 54.589,15.352 54.406,15.352 L54.004,15.352 C53.802,15.352 53.741,15.292 53.741,15.089 L53.741,1.305 C53.741,1.102 53.801,1.042 54.004,1.042 L54.406,1.042 C54.5180439,1.03599921 54.6250456,1.08912063 54.688,1.182 L61.642,11.118 C62.385,12.188 63.012,13.316 63.494,14.002 L63.535,14.002 C63.535,13.115 63.393,11.765 63.393,10.374 L63.393,1.285 C63.393,1.101 63.453,1.042 63.656,1.042 L64.061,1.042 C64.239,1.042 64.301,1.102 64.301,1.305 L64.3,1.305 Z M79.774,8.419 L79.774,10.779 C79.774,13.719 77.879,15.634 74.371,15.634 C70.825,15.634 68.931,13.719 68.931,10.636 L68.931,5.718 C68.931,2.653 70.783,0.758 74.353,0.758 C77.476,0.758 78.967,1.968 79.653,4.267 C79.713,4.467 79.653,4.53 79.471,4.609 L79.107,4.729 C78.926,4.791 78.827,4.751 78.764,4.569 C78.161,2.575 76.972,1.628 74.353,1.628 C71.35,1.628 69.856,3.159 69.856,5.698 L69.856,10.636 C69.856,13.216 71.432,14.766 74.371,14.766 C77.273,14.766 78.866,13.216 78.866,10.778 L78.866,9.023 L74.553,9.023 C74.353,9.023 74.291,8.943 74.291,8.761 L74.291,8.401 C74.291,8.218 74.352,8.136 74.553,8.136 L79.509,8.136 C79.714,8.136 79.774,8.218 79.774,8.419 L79.774,8.419 Z" id="Shape"></path>
                <path d="M105.348,15.634 C105.391,15.566 105.426,15.49 105.458,15.401 L107.047,11.406 L112.751,11.406 L114.34,15.358 C114.371,15.464 114.419,15.553 114.47,15.634 L117.027,15.634 L111.19,1.042 L108.645,1.042 L102.825,15.634 L105.348,15.634 L105.348,15.634 Z M109.908,4.171 L111.902,9.161 L107.912,9.161 L109.907,4.171 L109.908,4.171 Z M88.626,15.634 L88.626,5.84 L88.626,5.624 L88.631,5.632 L92.264,12.058 C92.549,12.655 93.08,12.655 93.256,12.655 L93.519,12.655 C93.966,12.655 94.293,12.45 94.476,12.083 L98.061,5.717 C98.078,5.691 98.094,5.663 98.109,5.635 L98.109,15.633 L100.457,15.633 L100.457,1.303 C100.457,1.21 100.444,1.124 100.427,1.041 L98.035,1.041 L93.375,9.311 L88.69,1.041 L86.307,1.041 C86.291,1.124 86.277,1.21 86.277,1.304 L86.277,15.633 L88.626,15.633 L88.626,15.634 Z M142.27,15.61 C142.307,15.549 143.96,11.406 143.96,11.406 L149.664,11.406 C149.664,11.406 151.325,15.536 151.373,15.61 L153.91,15.61 L148.103,1.042 L145.557,1.042 L139.775,15.61 L142.269,15.61 L142.27,15.61 Z M146.82,4.17 L148.815,9.16 L144.825,9.16 L146.82,4.17 Z M140.435,1.042 L128.825,1.042 L128.825,3.222 L133.455,3.222 L133.455,15.61 L135.841,15.61 L135.841,3.223 L140.435,3.223 L140.435,1.042 Z M121.745,13.39 L121.745,1.043 L119.358,1.043 L119.358,15.61 L129.153,15.61 L129.153,13.39 L121.745,13.39 Z" id="Shape"></path>
            </g>
        </g>
    </g>
</svg>